<?xml version="1.0" encoding="utf-8"?>
<!-- Generator: Adobe Illustrator 16.0.4, SVG Export Plug-In . SVG Version: 6.00 Build 0)  -->
<!DOCTYPE svg PUBLIC "-//W3C//DTD SVG 1.1//EN" "http://www.w3.org/Graphics/SVG/1.1/DTD/svg11.dtd">
<svg version="1.1" id="Layer_1" xmlns="http://www.w3.org/2000/svg" xmlns:xlink="http://www.w3.org/1999/xlink" x="0px" y="0px"
	 width="454.991px" height="461.754px" viewBox="0 0 454.991 461.754" enable-background="new 0 0 454.991 461.754"
	 xml:space="preserve">
<path fill="#FFFFFF" d="M249.795,1.689c0.224,0.142,0.139,0.642,0.004,0.885c-0.137,0.243-3.494,5.029-3.555,5.131
	c-0.124,0.207-0.412,0.3-0.536-0.031c-0.47-1.247-1.812-5.795-4.687-5.795c-2.144,0-4.092,2.075-4.092,4.181
	c0,2.224,2.021,2.65,3.426,3.241c1.716,0.719,5.322,1.616,7.135,2.991c2.075,1.573,2.747,3.975,2.054,5.994
	c-0.808,2.35-4.23,5.151-7.963,5.151c-4.561,0-7.207-3.294-7.207-3.294l-0.758-0.606l0.919-2.165l2.583-1.996
	c0,0-0.667,0.941-0.416,2.204c0.339,1.703,2.146,4.586,4.879,4.586c2.848,0,4.69-2.845,4.646-4.991
	c-0.05-2.419-2.412-3.242-6.483-4.981c-4.137-1.767-5.677-3.797-5.457-6.213c0.235-2.596,3.161-5.959,6.697-5.959
	c4.412-0.378,6.11,4.141,6.11,4.141s1.653-2.145,1.75-2.295C248.944,1.72,249.357,1.409,249.795,1.689"/>
<path fill="#FFFFFF" d="M236.287,13.953c-0.665,0.916-6.185,8.833-6.517,9.324c-0.33,0.492-0.295,0.963-0.022,1.185
	c0.273,0.221,0.822,0.245,1.399-0.463c0.575-0.71,6.8-9.84,7.112-10.258C238.573,13.323,236.951,13.039,236.287,13.953"/>
<path fill="#FFFFFF" d="M153.224,9.458c0-2.31,2.353-7.462,5.623-7.462c3.943,0,5.339,4.851,5.68,6.394
	c0.064,0.289,0.25,0.257,0.406,0.079c0.156-0.181,4.407-5.06,5.124-5.913s-0.091-1.535-0.653-0.898
	c-0.723,0.821-3.357,3.618-3.357,3.618s-1.815-4.709-7.546-4.709c-3.596,0-9.39,3.231-9.39,11.788
	c0,7.449,5.067,10.981,9.668,10.981c2.834,0,4.846-1.461,5.287-1.958c0.441-0.497-0.054-0.679-0.334-0.527
	c-0.951,0.511-1.621,1.054-3.538,1.054c-3.331,0-5.273-3.045-6.058-4.904c-0.709-1.68-0.893-4.238-0.893-4.238h13.24
	c0.494,0,0.658,0.307,0.658,0.668c0,0.362-0.022,13.144-0.027,14.987c0,0.575,0.303,0.915,0.78,0.915
	c0.479,0,0.988-0.833,0.988-1.318V11.104c0-0.682-0.221-1.099-1.043-1.099h-14.098C153.213,10.005,153.224,9.474,153.224,9.458"/>
<path fill="#FFFFFF" d="M121.388,11.123c0.659,0.869,0.956,2.092,0.956,3.475c0.032,2.028,0.099,4.204,0.131,6.135
	c0,0.806,0.43,1.063,1.285,1.255c0.659,0.129,0.831,0.21,0.831,0.404c0,0.291-0.172,0.347-0.797,0.347
	c-1.12,0-1.483-0.096-2.604-0.096c-0.757,0-1.079,0.064-2.034,0.064c-0.495,0-0.581-0.042-0.581-0.267
	c0-0.192,0.252-0.2,0.614-0.386c0.4-0.207,0.585-0.355,0.718-1.578c0.065-0.612,0-4.333,0-4.848c0-1.771-0.166-2.799-0.528-3.218
	c-0.528-0.612-1.384-1.062-2.668-1.062c-1.417,0-2.504,0.612-2.635,0.741c-0.068,0.064-0.495,0.578-0.528,1.576
	c-0.099,1.352-0.099,5.716-0.066,6.876c0.066,1.061,0.526,1.255,1.284,1.447c0.462,0.129,0.629,0.243,0.629,0.404
	c0,0.291-0.265,0.315-0.727,0.315c-0.263,0-1.91-0.064-2.7-0.064c-0.759,0-1.945,0.096-2.505,0.096
	c-0.297,0-0.648-0.025-0.648-0.347c0-0.161,0.154-0.243,0.845-0.436c0.857-0.289,1.186-0.643,1.287-1.834
	c0.098-1.351,0.329-3.613,0.329-11.852c0-1.094,0.032-1.963-0.1-2.896c-0.098-0.837-1.198-0.964-1.875-0.991
	c-0.146-0.006,0.458-1.261,0.458-1.52c0-0.127-0.458-0.217-0.458-0.217c1.665,0,3.062-0.555,3.852-1.068
	c0.131-0.066,0.428-0.226,0.626-0.226c0.132,0,0.197,0.257,0.197,0.354c-0.33,2.316-0.461,8.676-0.461,9.61
	c0,0.193,0.197,0.225,0.232,0.193c1.349-1.191,2.766-1.866,4.15-1.866C119.544,9.643,120.697,10.19,121.388,11.123"/>
<path fill="#FFFFFF" d="M135.477,10.899c0.723,0.674,1.117,1.467,1.117,2.595c0,0.354-0.269,0.532-0.59,0.655
	c-0.43,0.16-5.958,1.91-7.054,2.271c-0.426,0.14-0.65,0.287-0.622,0.608c0.047,0.531,0.263,1.207,0.988,2.14
	c0.724,0.965,2.108,1.769,3.69,1.769c1.45,0,2.437-0.353,2.998-1.157c0.131-0.193,0.297-0.387,0.428-0.387
	c0.197,0,0.264,0.225,0.264,0.387c0,0.256-0.133,0.611-0.231,0.771c-1.154,1.643-2.9,2.414-4.777,2.414
	c-3.558,0-5.929-2.639-5.929-6.404c0-2.574,1.382-5.15,3.953-6.306c0.856-0.386,1.943-0.581,2.502-0.581
	C133.368,9.674,134.653,10.094,135.477,10.899 M128.203,14.966c-0.011,0.173,0.102,0.352,0.325,0.367
	c0.41,0.03,2.188-0.704,3.673-1.319c1.358-0.562,1.848-0.908,1.848-1.552c0-0.901-0.714-1.951-2.163-1.951
	C129.862,10.511,128.328,13.077,128.203,14.966"/>
<path fill="#FFFFFF" d="M208.843,10.899c0.723,0.674,1.117,1.467,1.117,2.595c0,0.354-0.267,0.532-0.59,0.655
	c-0.43,0.16-5.958,1.91-7.054,2.271c-0.426,0.14-0.65,0.287-0.622,0.608c0.047,0.531,0.263,1.207,0.988,2.14
	c0.724,0.965,2.108,1.769,3.69,1.769c1.45,0,2.437-0.353,2.998-1.157c0.132-0.193,0.297-0.387,0.428-0.387
	c0.197,0,0.264,0.225,0.264,0.387c0,0.256-0.133,0.611-0.231,0.771c-1.154,1.643-2.9,2.414-4.777,2.414
	c-3.557,0-5.929-2.639-5.929-6.404c0-2.574,1.382-5.15,3.953-6.306c0.856-0.386,1.943-0.581,2.502-0.581
	C206.734,9.674,208.02,10.094,208.843,10.899 M201.569,14.966c-0.011,0.173,0.102,0.352,0.325,0.367
	c0.41,0.03,2.188-0.704,3.673-1.319c1.358-0.562,1.848-0.908,1.848-1.552c0-0.901-0.714-1.951-2.163-1.951
	C203.229,10.511,201.694,13.077,201.569,14.966"/>
<path fill="#FFFFFF" d="M174.771,2.606c1.517-0.515,2.503-0.709,3.393-1.254c0.1-0.066,0.297,0.192,0.297,0.321
	c-0.099,0.804-0.297,2.787-0.297,7.101c0,4.696-0.065,10.974,0.1,11.842c0.131,0.644,0.28,0.933,1.698,1.318
	c0.493,0.13,0.591,0.308,0.591,0.503c0,0.224-0.313,0.301-0.708,0.301c-0.791,0-2.208-0.095-2.8-0.095
	c-0.757,0-2.209,0.095-2.899,0.095c-0.661,0-0.771-0.046-0.771-0.301c0-0.227,0.211-0.308,0.572-0.372
	c1.516-0.321,1.583-1.031,1.682-2.641c0.065-1.222,0.229-4.698,0.229-9.781c0-2.382-0.099-4.109-0.099-5.073
	c0-0.259,0.015-0.674-0.79-0.902c-0.654-0.186-0.659-0.483-0.659-0.612C174.311,2.93,174.41,2.703,174.771,2.606"/>
<path fill="#FFFFFF" d="M192.678,9.771c0.131,0.032,0.23-0.192,0.263-0.354c0.166-0.869,0.067-4.139-0.033-4.912
	c-0.033-0.161-0.13-0.973-1.242-1.222c-0.33-0.074-0.636-0.323-0.636-0.387c0-0.286,0.363-0.515,0.562-0.545
	c0.756-0.1,2.502-0.581,3.358-0.903c0.199-0.065,0.297-0.096,0.43-0.096c0.098,0,0.296,0.226,0.262,0.514
	c-0.164,1.706-0.296,1.211-0.296,11.059c0,6.499,0.067,6.725,0.1,7.338c0.032,1.189,0.295,1.319,0.493,1.319
	c0.362,0,1.449-0.072,1.778-0.105c0.133,0,0.199,0.162,0.199,0.194c0,0.225-0.395,0.772-0.561,0.804
	c-0.626,0.096-2.338,0.264-2.965,0.49c-0.757,0.259-1.064,0.24-1.227,0.24c-0.131,0-0.321-0.176-0.321-0.337
	c0-0.289,0.066-0.869,0.066-1.318c0-0.129-0.131-0.194-0.197-0.194c-1.516,1.319-3.196,1.609-4.283,1.609
	c-1.582,0-3.097-0.707-4.117-1.77c-1.056-1.159-1.583-2.8-1.583-4.409c0-3.153,1.879-4.988,3.492-5.921
	c1.516-0.902,3.459-1.222,4.349-1.222C191.755,9.643,192.282,9.707,192.678,9.771 M186.78,11.831
	c-0.626,0.611-1.383,2.252-1.383,4.053c0,2.575,1.844,5.537,4.678,5.537c1.054,0,1.812-0.355,2.405-0.773
	c0.066-0.065,0.493-1.093,0.528-2.124c0.033-2.06,0-3.83-0.1-5.341c-0.033-0.258-0.33-0.836-0.724-1.223
	c-0.924-0.902-2.175-1.256-2.833-1.256C188.297,10.704,187.375,11.252,186.78,11.831"/>
<path fill="#FFFFFF" d="M213.822,10.769c1.089-0.354,1.733-0.584,2.062-0.777c0.396-0.258,0.561-0.387,0.659-0.387
	c0.132,0,0.261,0.298,0.295,0.387c0.221,0.562,0.312,1.346,0.312,1.959c0,0.127,0.164,0.16,0.231,0.127
	c1.284-1.191,2.734-1.995,3.756-1.995c1.35,0,1.647,0.804,1.647,1.095c0,0.064,0.092,0.09-0.006,0.251
	c-0.364,0.516-0.961,1.187-1.159,1.282c-0.066,0.035-0.363-0.03-0.461-0.095c-0.363-0.322-1.154-0.708-1.813-0.708
	c-0.559,0-1.503,0.492-1.833,0.845c-0.231,0.259-0.33,0.547-0.33,0.709c0,0.643,0.165,6.14,0.199,6.622
	c0.066,0.933,0.255,1.413,0.772,1.719c0.261,0.155,0.433,0.18,0.927,0.307c0.527,0.163,0.592,0.275,0.592,0.405
	c0,0.16-0.296,0.288-0.79,0.288c-0.824,0-1.304-0.16-3.213-0.16c-0.989,0-1.386,0.129-2.176,0.129c-0.363,0-0.692-0.129-0.692-0.387
	c0-0.192,0.396-0.21,0.659-0.306c1.285-0.419,1.383-0.852,1.416-2.784V13.15c0-0.578-0.37-1.199-0.602-1.325
	c-0.498-0.271-0.88-0.38-0.88-0.509C213.394,11.218,213.46,10.898,213.822,10.769"/>
<path fill="#FFFFFF" d="M266.919,10.769c1.088-0.354,1.732-0.584,2.063-0.777c0.395-0.258,0.559-0.387,0.655-0.387
	c0.136,0,0.264,0.298,0.298,0.387c0.221,0.562,0.312,1.346,0.312,1.959c0,0.127,0.164,0.16,0.231,0.127
	c1.283-1.191,2.732-1.995,3.755-1.995c1.352,0,1.646,0.804,1.646,1.095c0,0.064,0.094,0.09-0.006,0.251
	c-0.363,0.516-0.962,1.187-1.158,1.282c-0.064,0.035-0.363-0.03-0.463-0.095c-0.36-0.322-1.151-0.708-1.81-0.708
	c-0.56,0-1.504,0.492-1.833,0.845c-0.231,0.259-0.33,0.547-0.33,0.709c0,0.643,0.164,6.14,0.198,6.622
	c0.065,0.933,0.256,1.413,0.771,1.719c0.262,0.155,0.435,0.18,0.928,0.307c0.526,0.163,0.592,0.275,0.592,0.405
	c0,0.16-0.296,0.288-0.788,0.288c-0.825,0-1.306-0.16-3.215-0.16c-0.989,0-1.385,0.129-2.175,0.129
	c-0.364,0-0.691-0.129-0.691-0.387c0-0.192,0.396-0.21,0.658-0.306c1.285-0.419,1.384-0.852,1.415-2.784V13.15
	c0-0.578-0.369-1.199-0.601-1.325c-0.501-0.271-0.88-0.38-0.88-0.509C266.492,11.218,266.558,10.898,266.919,10.769"/>
<path fill="#FFFFFF" d="M263.01,10.478c0.329,0.226,0.494,0.774,0.494,0.967c0,0.515-0.955,1.287-1.089,1.287
	c-0.195,0-0.756-0.258-1.283-0.611c-1.086-0.773-1.647-1.256-2.767-1.256c-0.527,0-1.516,0.451-2.043,1.095
	c-0.891,0.965-1.385,2.285-1.385,3.7c0,1.868,0.726,3.025,0.857,3.218c0.824,1.351,2.438,2.156,4.151,2.156
	c1.219,0,1.667-0.384,2.524-0.964c0.362-0.258,1.033-0.162,1.033-0.002c0,0.355-0.165,0.677-0.43,0.934
	c-1.151,1.256-3.028,1.996-4.742,1.996c-2.076,0-3.821-1.062-4.877-2.575c-0.56-0.902-1.021-2.414-1.021-3.765
	c0-2.349,1.284-4.311,3.196-5.568c1.284-0.9,3.426-1.351,4.315-1.351C260.935,9.739,262.383,9.997,263.01,10.478"/>
<path fill="#FFFFFF" d="M290.635,16.208c0,2.671-1.645,4.763-2.864,5.535c-1.317,0.932-2.604,1.286-4.085,1.286
	c-1.515,0-3.162-0.674-4.383-1.673c-1.416-1.126-2.439-3.314-2.439-4.923c0-2.446,1.058-3.991,2.309-5.021
	c1.021-0.869,2.668-1.768,4.875-1.768C287.309,9.644,290.635,12.153,290.635,16.208 M281.279,11.542
	c-0.854,0.771-1.613,2.445-1.613,4.119c0,1.063,0.132,2.059,0.395,2.864c0.824,2.413,2.702,3.571,4.284,3.571
	c0.361,0,1.086-0.16,2.009-1.061c0.822-0.869,1.481-2.864,1.481-4.248c0-1.674-0.396-3.507-1.646-4.924
	c-0.725-0.772-1.911-1.255-2.766-1.255C282.731,10.608,281.973,10.96,281.279,11.542"/>
<path fill="#FFFFFF" d="M306.43,22.11c-1.417-0.386-1.551-0.773-1.682-1.416c-0.163-0.87-0.1-7.224-0.1-11.92
	c0-4.313,0.199-6.297,0.298-7.101c0-0.129-0.198-0.387-0.298-0.321c-0.888,0.545-1.875,0.739-3.392,1.254
	c-0.361,0.096-0.463,0.323-0.463,0.45c0,0.129,0.217,0.304,0.814,0.454c0.429,0.109,0.636,0.499,0.636,0.757
	c0,0.965,0.101,2.994,0.101,5.376c0,5.083-0.165,8.766-0.232,9.988c-0.097,1.608-0.163,1.981-1.68,2.304
	c-0.249,0.045-0.964,0.051-1.287-0.033c-1.417-0.384-1.549-0.582-1.681-1.225c-0.167-0.869-0.099-7.207-0.099-11.903
	c0-4.313,0.198-6.297,0.298-7.101c0-0.129-0.199-0.387-0.298-0.321c-0.89,0.545-1.878,0.739-3.395,1.254
	c-0.362,0.096-0.46,0.323-0.46,0.45c0,0.129,0.335,0.31,0.821,0.485c0.485,0.175,0.629,0.468,0.629,0.726
	c0,0.965,0.1,2.994,0.1,5.376c0,5.083-0.167,8.75-0.232,9.972c-0.099,1.61-0.164,2.189-1.68,2.509
	c-0.363,0.066-0.584,0.123-0.584,0.349c0,0.258,0.121,0.265,0.781,0.265c0.692,0,2.142-0.095,2.899-0.095
	c0.592,0,2.009-0.078,2.8-0.078h1.585c0.691,0,2.143,0.078,2.898,0.078c0.594,0,2.009,0.095,2.8,0.095
	c0.396,0,0.671-0.022,0.671-0.249C307,22.297,306.924,22.239,306.43,22.11"/>
<path fill="#FFFFFF" d="M314.547,9.835c0.366,0.065,1.007,0.322,1.075,0.355c0.068,0.034,0.279,0.257,0.289,0.45
	c0.034,0.578,0.198,1.673,0.211,1.898c0.018,0.291-0.097,0.58-0.362,0.58c-0.131,0-0.34-0.193-0.525-0.548
	c-0.812-1.512-1.674-2.154-2.764-2.154c-1.351,0-1.897,1.319-1.858,1.994c0.065,1.095,1.169,1.931,3.445,3.122
	c1.909,1.06,2.696,2.156,2.782,3.603c0.086,1.48-0.937,2.575-1.727,3.155c-0.569,0.385-1.702,0.739-2.722,0.739
	c-0.989,0-4.819-0.188-6.644-0.328c-0.102-0.01-0.191-0.727,0.667-0.596c1.882,0.285,2.457-1.12,2.432-1.558
	c-0.022-0.353,0.025-0.676,0.225-0.676c0.262,0,0.45,0.16,0.667,0.514c1.02,1.641,1.682,1.839,2.87,1.839
	c0.428,0,0.942-0.224,1.289-0.482c0.471-0.386,0.688-1.158,0.651-1.77c-0.049-0.87-0.551-1.545-1.608-2.157
	c-0.824-0.546-1.03-0.708-2.089-1.351c-1.024-0.611-2.146-1.737-2.234-3.249c-0.063-1.094,0.435-2.157,1.641-2.897
	c0.604-0.385,1.478-0.675,2.598-0.675C313.48,9.643,314.179,9.739,314.547,9.835"/>
<path fill="#FFFFFF" d="M110.992,4.403l0.102-1.787c0,0-11.048-0.005-13.982-0.005c-2.828,0-4.979-0.159-6.055,0.979
	c-0.94,0.998-0.709,1.753-0.635,2.493c0.072,0.734,1.091,0.723,1.19,0.027c0.101-0.695,0.095-0.791,0.225-1.121
	c0.129-0.328,0.432-0.586,1.174-0.586h5.588v14.021c-0.117,2.302-0.05,2.896-2.552,3.458c-0.351,0.074-0.622,0.213-0.622,0.48
	c0,0.228,0.271,0.441,1.05,0.441c0.506,0,2.154-0.266,4.101-0.266c1.714,0,3.791,0.186,4.103,0.186c0.39,0,0.909-0.036,0.909-0.454
	c0-0.267-0.365-0.387-0.87-0.503c-2.415-0.532-2.271-0.988-2.468-2.702c-0.071-0.65-0.109-1.962-0.13-3.422V4.403H110.992z"/>
<path fill="#FFFFFF" d="M331.385,2.107c0.389-0.11,1.04-0.318,1.977-0.717c0.87-0.368,1.383-0.598,2.18-0.598
	c0.449,0,0.561,0.132,0.624,0.368c0.089,0.343-0.052,1.017,0.34,2.107c0.647,1.804,4.969,11.313,6.215,14.334
	c0.07,0.07,0.242,0.281,0.347,0.037c0.276-0.739,3.257-7.821,4.852-11.601c0.747-1.77,0.935-2.872,0.839-3.647
	c-0.183-1.445-0.23-1.908,0.323-1.908c0.795,0,1.239-0.025,1.968-0.025c0.485,0,0.887,0.796,0.743,1.158
	c-0.194,0.484-0.678,1.161-1.109,2.258c-1.411,3.592-3.273,7.774-4.417,10.443c-1.364,3.185-2.768,6.748-3.361,8.317
	c-0.146,0.385-0.499,0.91-0.843,0.91c-0.21,0-0.557-0.279-0.674-0.647c-0.313-0.99-1.294-3.118-2.268-5.699
	c-1.187-3.154-3.731-9.179-4.276-10.434c-0.877-2.015-1.801-3.388-3.154-3.505c-0.762-0.065-1.064-0.243-1.07-0.557
	C330.61,2.418,330.983,2.22,331.385,2.107"/>
<path fill="#FFFFFF" d="M322.622,6.425c-0.468,0.47-1.034,0.705-1.697,0.705c-0.662,0-1.229-0.235-1.693-0.705
	c-0.462-0.467-0.694-1.034-0.694-1.7c0-0.659,0.233-1.222,0.701-1.69c0.466-0.466,1.028-0.698,1.687-0.698
	c0.663,0,1.229,0.232,1.697,0.698c0.468,0.465,0.702,1.029,0.702,1.69C323.324,5.389,323.09,5.956,322.622,6.425 M319.471,3.27
	c-0.401,0.402-0.602,0.888-0.602,1.459c0,0.574,0.199,1.064,0.599,1.468c0.399,0.404,0.886,0.607,1.457,0.607
	s1.06-0.203,1.461-0.607c0.399-0.404,0.599-0.894,0.599-1.468c0-0.571-0.199-1.057-0.599-1.459
	c-0.405-0.405-0.891-0.607-1.461-0.607C320.358,2.663,319.872,2.865,319.471,3.27 M320.878,3.403c0.329,0,0.567,0.032,0.721,0.096
	c0.27,0.113,0.407,0.335,0.407,0.666c0,0.236-0.086,0.408-0.258,0.52c-0.09,0.058-0.217,0.101-0.381,0.127
	c0.208,0.032,0.358,0.118,0.452,0.257c0.096,0.139,0.144,0.274,0.144,0.408v0.192c0,0.06,0.002,0.126,0.008,0.195
	c0.004,0.07,0.01,0.116,0.021,0.138l0.018,0.032h-0.435c-0.003-0.008-0.006-0.017-0.008-0.026c0-0.009-0.003-0.019-0.004-0.029
	l-0.012-0.084v-0.21c0-0.302-0.083-0.504-0.247-0.601C321.207,5.027,321.034,5,320.788,5h-0.365v1.034h-0.464V3.403H320.878z
	 M321.381,3.818c-0.117-0.065-0.306-0.098-0.562-0.098h-0.396v0.953h0.419c0.195,0,0.344-0.02,0.441-0.059
	c0.182-0.071,0.272-0.209,0.272-0.411C321.556,4.012,321.496,3.884,321.381,3.818"/>
<polygon fill="#FFFFFF" points="448.412,63.834 449.434,63.834 449.434,66.439 450.054,66.439 450.054,63.834 451.076,63.834 
	451.076,63.313 448.412,63.313 "/>
<polygon fill="#FFFFFF" points="454.102,63.313 453.298,65.551 452.5,63.313 451.606,63.313 451.606,66.438 452.18,66.438 
	452.18,63.916 453.054,66.438 453.554,66.438 454.417,63.916 454.417,66.438 454.991,66.438 454.991,63.313 "/>
<path fill="#FFFFFF" d="M33.876,96.658l-0.693-0.476c0.003,0,0.005,0.001,0.008,0.001c-3.093-2.087-6.74-3.946-10.667-5.853
	C15.093,86.72,8.788,81.895,8.788,75.87c0-8.006,10.656-8.711,15.854-7.818c9.339,1.6,12.514,7.753,12.514,7.753h0.741v-9.373
	c0,0-5.805-3.402-11.858-4.036c-7.253-0.758-13.944,0.579-18.048,3.47c-0.363,0.255-0.712,0.529-1.049,0.812l-0.002-0.002
	L5.794,67.75c-3.772,3.9-5.403,9.574-4.632,14.231c0.861,5.209,3.969,9.92,13.612,15.341l2.118,1.151
	c8.522,4.495,17.001,7.663,17.001,16.635c0,5.196-8.716,11.758-20.427,8.26c-9.953-2.97-12.454-13.888-12.454-13.888H0v11.941
	c0,0,4.686,9.27,19.849,9.27c17.353,0,23.114-12.082,23.114-18.173C42.963,105.26,39.376,100.539,33.876,96.658"/>
<path fill="#FFFFFF" d="M440.64,126.698c-1.14-2.464-1.259-5.435-1.259-9.531V89.496v-1.619V76.505c0-4.137,0.103-8.054,1.09-10.328
	c0.188-0.431,0.474-0.793,0.763-1.084c0.492-0.479,1.068-0.624,1.068-0.624v-0.344v-0.812h-13.937l-21.128,29.445l-9.068-12.903
	l-2.307-3.281l-9.32-13.26h-14.765v0.728c0.453,0.484,1.382,0.933,1.933,2.441c0.609,1.671,0.838,5.855,0.838,10.022v40.066
	c0,4.325-0.334,8.061-1.344,10.126c-0.981,2.015-2.269,2.681-2.269,2.681v1.076h14.874v-1.121c0,0-1.659-0.917-2.521-3.175
	c-0.783-2.05-1.088-5.807-1.181-8.768l-0.026-1.318c-0.003-0.238-0.006-0.47-0.006-0.688V72.781h0.167l24.561,33.753l11.576-16.771
	l0.41-0.595l11.031-15.98h0.168v44.774c0,6.073-0.086,7.93-0.759,9.365c-0.671,1.437-2.017,2.329-2.017,2.329v0.799h15.695v-1.083
	C442.909,129.372,441.517,128.594,440.64,126.698"/>
<path fill="#FFFFFF" d="M339.978,127.207c-1.157-2.438-1.619-4.848-1.619-8.979V85.196v-1.309v-8.28
	c0-4.167,0.211-6.787,1.029-8.714c0.738-1.734,2.155-2.405,2.155-2.405v-0.846h-15.226v0.8v0.044c0,0,0.67,0.311,0.948,0.592
	c0.383,0.383,0.838,0.988,1.271,1.957c0.982,2.184,0.925,5.897,0.925,8.308v42.886c0,4.131-0.528,6.855-1.375,8.871
	c-0.852,2.024-2.37,2.761-2.37,2.761v0.924h16.434v-1.064C342.15,129.719,340.757,128.854,339.978,127.207"/>
<path fill="#FFFFFF" d="M129.068,123.167c-0.554-0.882-2.726-4.062-5.196-7.652l-0.137-0.198c-0.004-0.006-0.008-0.012-0.012-0.018
	l-0.424-0.614c-3.865-5.614-8.205-11.866-8.205-11.866s-4.463-1.12-8.101-3.528c-2.727-1.809-4.51-4.687-4.51-4.687l18.242-20.044
	c4.088-4.712,9.837-10.229,12.725-10.764v-1.022h-17.96v0.629c0,0,0.708,0.615,0.892,1.316c0.197,0.748,0.225,1.657-0.062,3.052
	c-0.378,1.848-1.597,3.854-3.846,6.82c-0.76,1.002-17.421,20.047-17.421,20.047s7.43,9.373,13.78,17.398l1.411,1.786
	c4.035,5.104,7.327,9.278,7.456,9.479c0.778,1.206,1.978,4.15,0.572,5.346v1.268h0.109h4.425h1.617h1.15h0.091h0.723h0.348h1.808
	h7.435v-1.021C132.599,127.955,129.842,124.395,129.068,123.167"/>
<path fill="#FFFFFF" d="M290.542,120.213c-3.794-6.096-6.981-13.243-6.981-13.243c-2.32,0-6.692-1.902-8.929-4.07
	c-2.26-2.192-4.148-4.478-4.148-4.478s5.85,0.404,13.442-3.922c6.584-3.633,8.506-11.388,8.506-15.562
	c0-4.794-2.557-10.438-7.253-12.961c-4.991-2.685-14.521-2.663-20.641-2.663h-19.416v0.92l0.822,0.595
	c0.615,0.491,1.349,1.356,1.757,2.309c0.806,1.876,1.001,5.216,1.032,8.894l0.006,1.989v40.23c0,4.131,0.062,6.468-1.092,8.936
	c-0.682,1.455-1.983,2.44-2.2,2.44v0.828h15.293v-0.868c-0.689-0.281-1.827-1.48-2.286-3.047c-0.778-2.651-0.902-5.024-0.902-8.289
	V93.69v-1.123V68.699h10.297c11.969,0,15.447,3.765,15.447,11.015c0,5.54-3.182,11.082-9.472,13.301
	c-3.229,1.14-9.969,1.073-9.969,1.073s10.396,16.462,16.532,26.687c3.211,5.355,5.099,10.34,13.46,10.34h3.894v-0.893
	C296.93,129.915,294.646,126.806,290.542,120.213"/>
<path fill="#FFFFFF" d="M201.216,63.652c0,0,0.871,0.615,1.178,1.315c0.326,0.747,0.554,1.56,0.514,2.954
	c-0.055,1.847-1.275,4.472-2.371,6.918c-0.338,0.754-7,13.771-10.187,19.482c-3.411-5.323-11.273-21.349-11.273-21.349
	c-0.681-1.33-1.478-3.793-1.478-5.454c0-2.73,1.835-3.414,1.835-3.414v-0.792h-16.905v0.952c0.643,0.163,1.388,0.626,2.095,1.382
	c1.009,1.075,3.442,4.756,5.523,8.816l14.922,29.034v13.669c0,0.495-0.005,0.982-0.014,1.463l-0.132,2.836
	c-0.189,2.344-0.593,4.381-1.399,5.889c-0.869,1.623-2.04,2.208-2.04,2.208v0.893h14.607h0.979l0.001-0.061v-0.773
	c0,0-1.068-0.723-2.013-2.483c-0.905-1.686-1.191-5.874-1.191-9.971v-12.294l-0.016-2.116l13.327-27.948
	c2.642-5.132,5.285-10.229,8.08-10.764v-1.022h-14.042V63.652z"/>
<path fill="#FFFFFF" d="M78.007,63.531c0,0,1.705,0.91,2.511,2.5c1.201,2.368,1.204,6.593,1.204,10.729v28.754v1.627v8.692
	c0,4.098,0.144,8.773-0.76,10.608c-0.935,1.899-2.264,2.42-2.264,2.42v1.053h0.324h4.226h5.181h0.083h0.454h4.447h0.327v-0.962
	c0,0-1.256-0.588-1.984-2.459c-0.804-2.067-0.941-6.562-0.941-10.66v-6.62v-1.218V76.76c0-4.137-0.051-8.487,1.186-10.941
	c0.465-0.922,1.378-1.959,2.263-2.422v-0.622H78.007V63.531z"/>
<path fill="#FFFFFF" d="M4.819,42.217c0,0,331.384,2.986,436.987,0C441.806,42.217,156.515,39.707,4.819,42.217"/>
<path fill-rule="evenodd" clip-rule="evenodd" fill="#FFFFFF" d="M211.832,179.125c-0.135,0.195-0.208-0.125-0.231-0.154
	c-0.614-0.812-1.305-1.846-1.934-2.784c-0.75-1.123-1.466-2.371-2.631-2.786c-1.805-0.645-3.444,0.393-4.099,1.547
	c-0.558,0.986-0.809,2.465-1.16,3.867c-4.314,17.273-8.524,33.997-12.917,51.436c-0.653,2.592-1.718,5.756-1.006,8.433
	c0.625,2.343,2.915,4.073,4.487,5.646c1.142,1.143,2.599,2.471,3.867,3.713c0.42,0.412,1.057,0.832,1.237,1.238
	c0.173,0.385,0.296,1.336,0.388,1.779c0.35,1.691,0.656,3.621,1.083,5.182c-0.216,0.271-0.267-0.182-0.31-0.232
	c-2.829-3.193-4.921-6.998-10.519-7.657c-2.001-0.235-3.484,0.187-4.254,1.856c-0.525,1.137-0.734,2.545-1.083,3.944
	c-1.627,6.515-3.405,13.229-5.105,20.033c-0.333,1.331-0.818,2.669-0.928,4.099c-0.118,1.545,0.233,2.875,0.85,4.1
	c1.512,2.998,5.376,5.16,9.591,5.416c2.421,0.146,4.839-0.248,6.884-0.619c1.913-0.348,4.015-0.854,4.874-2.629
	c0.019-0.043-0.012-0.112,0-0.155c0.373-1.422-0.467-3.086-0.929-4.101c-1.104-2.424-2.672-4.238-4.795-5.567
	c-0.55-0.347-1.144-0.632-1.702-0.929c-0.53-0.284-1.065-0.545-1.47-0.928c5.238-0.104,8.955,1.895,11.99,4.1
	c3.077,2.234,5.399,5.378,7.038,9.049c0.187-4.158-1.361-6.994-2.707-9.359c5.351,1.506,8.064,5.652,9.9,10.674
	c-0.143-4.779-1.93-8.535-3.403-12.299c-1.504-3.842-3.155-7.904-2.784-12.916c0.549-7.432,4.175-11.658,9.127-14.697
	c1.635-1.004,3.476-1.592,5.569-2.319c3.827-1.332,8.052-2.386,11.447-4.409c1.566-0.934,3.121-2.207,4.332-3.635
	c1.277-1.506,2.281-3.115,2.631-5.26c0.827-5.098-2.465-8.393-5.261-10.287c-1.581-1.073-3.407-1.848-5.491-2.398
	c-2.102-0.556-4.408-0.947-7.04-0.695c-1.728,0.164-3.32,0.951-4.64,1.777s-2.409,1.868-3.481,2.939
	c-0.987,0.988-2.14,2.076-3.094,3.326c-1.414,1.851-2.386,3.806-1.779,6.961c-1.438-0.645-2.847-1.608-3.713-3.016
	c-0.48-0.783-0.674-1.82-0.773-3.25c-0.061-0.869-0.325-1.992-0.155-2.861c0.084-0.43,0.547-0.904,0.928-1.393
	c0.37-0.473,0.701-0.986,0.929-1.391c0.544-0.971,1.132-2.082,1.391-3.172c0.139-0.582,0.164-1.448,0.079-2.244
	c-0.075-0.67-0.432-1.354-0.387-1.934c0.043-0.559,0.762-1.557,1.159-2.242c0.879-1.518,1.53-2.742,2.397-4.254
	c0.658-1.146,1.324-1.817,1.471-3.326c0.207-2.127-0.363-4.547-0.695-6.807c-0.338-2.293-0.676-4.582-0.233-6.73
	c0.338-1.643,1.366-2.903,2.321-4.021c0.983-1.15,1.924-2.312,2.938-3.326c-0.645,1.789-1.688,3.152-1.856,5.26
	c-0.256,3.215,0.916,5.877,1.933,8.354c1.039,2.527,2.157,4.91,2.707,7.58c6.636,0.576,13.472,0.102,17.868-2.243
	c1.225-1.069,1.883-2.707,1.935-4.95c0.77,1.853,0.476,4.029-0.387,5.338c-0.729,1.104-1.913,1.82-3.171,2.629
	c-3.365,2.162-7.633,4.345-9.514,7.736c7.711,1.098,13.969,3.987,17.248,9.668c1.114,1.93,1.818,4.317,2.011,6.961
	c0.333,4.57-1.251,7.889-3.094,10.52c-1.916,2.732-4.309,4.738-7.193,6.42c-5.968,3.479-13.357,4.727-16.244,10.982
	c-0.599,2.062-0.341,4.574,0.387,6.42c0.799,2.021,2.553,3.762,4.023,5.261c3.66,3.733,8.087,7.983,10.364,12.839
	c0.756,1.613,1.175,3.29,1.47,5.337c1.993-5.019,4.575-9.45,10.133-10.905c-1.598,2.477-2.89,5.258-2.785,9.436
	c1.53-3.788,4-6.752,7.039-9.049c2.974-2.248,6.694-4.275,11.912-4.176c0.261,0.072-0.286,0.359-0.465,0.463
	c-1.734,0.996-3.644,1.807-5.027,3.326c-1.352,1.484-2.851,3.857-3.326,6.188c-0.441,2.164,1.192,3.412,2.862,3.945
	c0.776,0.248,1.689,0.282,2.629,0.465c2.275,0.435,5.773,0.809,8.354,0.308c1.459-0.283,3.117-0.994,4.332-1.778
	c1.208-0.779,2.376-1.966,3.018-3.017c0.698-1.147,1.043-2.521,1.005-4.101c-0.036-1.49-0.503-2.836-0.852-4.176
	c-1.777-6.845-3.452-13.379-5.104-20.033c-0.332-1.338-0.528-2.744-1.006-4.022c-0.416-1.114-1.535-2.022-2.784-2.165
	c-1.602-0.184-3.155,0.341-4.409,0.773c-1.324,0.455-2.307,1.187-3.248,1.934c-1.732,1.375-2.815,3.199-4.255,4.873
	c-0.093,0.109-0.44,0.666-0.541,0.387c0.288-1.035,0.521-2.209,0.773-3.404c0.24-1.133,0.304-2.406,0.696-3.401
	c0.332-0.843,1.521-1.601,2.32-2.399l2.32-2.32c1.508-1.508,3.51-3.01,4.486-4.873c0.127-0.243,0.367-0.782,0.464-1.159
	c0.695-2.673-0.347-5.856-1.005-8.509c-4.021-16.196-7.934-31.776-11.989-47.877c-0.284-1.127-0.705-2.537-1.083-3.945
	c-0.382-1.428-0.576-2.992-1.16-3.79c-0.758-1.038-2.65-1.802-4.176-1.083c-0.351,0.165-0.792,0.547-1.084,0.85
	c-1.401,1.459-2.495,3.949-3.48,4.873c0.238-1.424,0.573-2.998,0.852-4.484c0.089-0.484,0.084-1.067,0.23-1.471
	c0.141-0.383,0.598-0.873,0.929-1.315c1.179-1.565,2.925-3.202,3.171-5.724c0.209-2.139,0-4.553,0-6.729
	c0-2.146,0.008-4.117,1.315-5.416c19.688,42.867,39.452,85.641,59.249,128.398c-19.639,43.164-39.257,86.365-58.862,129.559
	c-0.181-16.709-0.025-33.75-0.077-50.586c1.994-0.146,3.674-0.551,5.105-1.314c2.735-1.463,4.703-3.832,6.729-6.111
	c0.504-0.568,1.029-1.133,1.547-1.701c1.186-1.301,2.094-2.631,3.018-4.332c0.494-0.912,0.965-2.049,1.082-3.094
	c0.195-1.748-0.398-3.695-0.773-5.646c-1.339-6.992-3.348-15.381-1.469-22.662c-4.416,1.514-8.367,3.607-11.139,6.961
	c-2.793,3.377-4.099,7.859-5.105,13.07c-1.77-4.559-0.998-11.514,0.078-16.242c-1.907,0.412-3.439,1.143-4.719,2.012
	c-1.394,0.945-2.59,1.924-3.48,3.248c-2.574,3.828-2.627,11.348-2.011,17.404c0.206,2.031,0.433,4.076,0.618,6.109
	c0.353,3.869,1.185,8.572,0.232,12.377c-0.32,1.279-1.067,2.562-1.779,3.713c-2.07,3.342-4.322,6.627-6.42,9.977
	c-2.025,3.234-4.211,6.609-6.342,10.055c-0.682,1.1-1.633,2.521-1.78,3.637c-0.17,1.287,0.4,2.836,0.774,4.252
	c0.707,2.684,1.418,5.121,2.166,7.814c0.373,1.344,0.818,2.75,0.927,4.02c0.17,1.959-0.581,2.748-1.392,4.023
	c-2.257,3.549-4.551,6.514-7.039,9.979c-0.408,0.568-0.899,1.32-1.392,2.012c-0.569,0.795-1.257,1.492-1.315,2.318
	c-0.077,1.102,0.469,2.189,0.851,3.096c0.844,1.998,1.479,3.445,2.552,5.258c0.507,0.855,1.028,1.758,1.625,2.244
	c3.13,2.557,8.283-0.268,10.597-1.625c2.242-1.314,4.439-2.652,6.807-3.867c0.799-0.408,1.66-0.789,2.32-1.238
	c1.111-0.756,2.228-2.305,3.248-3.324c0.286-0.285,0.481-0.562,0.773-0.852c-0.052,0.051,0.236-0.316,0.232,0
	c-5.916,12.881-11.771,25.82-17.635,38.752c-4.35-9.27-8.419-18.588-12.608-28.309c-0.646-1.5-1.363-3.111-2.088-4.719
	c-0.728-1.615-1.66-3.182-1.935-4.873c-0.122-0.756-0.099-1.234,0.078-1.934c0.393-1.557,1.359-3.078,2.32-4.41
	c1.924-2.666,3.648-4.906,5.725-7.656c1.049-1.391,2.182-2.938,2.243-4.41c0.054-1.332-0.629-2.727-1.238-4.098
	c-1.167-2.625-2.177-4.82-3.326-7.35c-0.573-1.26-1.195-2.584-1.47-3.867c-0.44-2.053,0.471-3.861,1.315-5.568
	c1.647-3.332,3.783-6.691,5.57-9.746c1.229-2.104,2.424-4.301,3.713-6.496c1.191-2.033,2.721-4.59,3.094-7.117
	c0.361-2.447-0.006-5.164-0.387-7.502c-0.758-4.639-1.739-8.852-3.018-12.918c-0.312-0.996-0.742-1.922-1.16-2.861
	c-0.418-0.943-0.719-1.918-1.16-2.785c-3.662-7.221-8.969-11.859-17.094-14.773c1.136,4.844,1.796,11.498,0.155,16.242
	c-1.112-5.197-2.377-9.682-5.183-13.07c-2.785-3.367-6.627-5.359-11.138-7.039c1.771,7.209,0.129,14.641-1.16,21.27
	c-0.455,2.342-1.082,4.604-1.083,6.885c0,1.678,1.275,3.572,2.011,4.797c0.399,0.662,0.744,1.223,1.238,1.777
	c0.921,1.037,1.83,2.104,2.785,3.172c0.927,1.039,1.877,2.178,2.861,3.17c0.478,0.482,1.135,0.902,1.702,1.316
	c0.607,0.443,1.16,0.934,1.701,1.238c1.39,0.775,3.206,1.121,5.182,1.314v50.586c-14.772-32.201-29.395-64.707-44.165-97.15
	c-4.5-9.886-9.189-20.137-13.767-30.318c-0.317-0.705-0.921-1.635-0.928-2.012c-0.006-0.267,0.495-1.332,0.85-2.089
	c9.687-20.632,19.066-41.442,28.696-62.11c8.715-18.703,17.263-37.284,25.911-56.078c1.274-2.768,2.516-5.49,3.791-8.199
	c0.065-0.014,0.072,0.031,0.077,0.079c2.589,3.489-0.068,10.849,1.933,14.541c0.43,0.791,1.074,1.556,1.625,2.319
	c0.564,0.783,1.42,1.482,1.701,2.244c0.166,0.443,0.133,1.023,0.232,1.547C211.233,176.118,211.617,177.74,211.832,179.125"/>
</svg>
